<?xml version="1.0" encoding="UTF-8" standalone="no"?>
<!-- Created with Inkscape (http://www.inkscape.org/) -->

<svg
   xmlns:dc="http://purl.org/dc/elements/1.1/"
   xmlns:cc="http://creativecommons.org/ns#"
   xmlns:rdf="http://www.w3.org/1999/02/22-rdf-syntax-ns#"
   xmlns:svg="http://www.w3.org/2000/svg"
   xmlns="http://www.w3.org/2000/svg"
   xmlns:sodipodi="http://sodipodi.sourceforge.net/DTD/sodipodi-0.dtd"
   xmlns:inkscape="http://www.inkscape.org/namespaces/inkscape"
   width="253.52954mm"
   height="82.140358mm"
   viewBox="0 0 898.33302 291.04851"
   id="svg2"
   version="1.1"
   inkscape:version="0.91 r13725"
   sodipodi:docname="logo.svg">
  <defs
     id="defs4" />
  <sodipodi:namedview
     id="base"
     pagecolor="#ffffff"
     bordercolor="#666666"
     borderopacity="1.0"
     inkscape:pageopacity="0.0"
     inkscape:pageshadow="2"
     inkscape:zoom="0.88163296"
     inkscape:cx="443.49522"
     inkscape:cy="145.52426"
     inkscape:document-units="px"
     inkscape:current-layer="layer1"
     showgrid="false"
     inkscape:window-width="1405"
     inkscape:window-height="855"
     inkscape:window-x="35"
     inkscape:window-y="1"
     inkscape:window-maximized="1"
     fit-margin-top="0"
     fit-margin-left="0"
     fit-margin-right="0"
     fit-margin-bottom="0" />
  <metadata
     id="metadata7">
    <rdf:RDF>
      <cc:Work
         rdf:about="">
        <dc:format>image/svg+xml</dc:format>
        <dc:type
           rdf:resource="http://purl.org/dc/dcmitype/StillImage" />
        <dc:title></dc:title>
      </cc:Work>
    </rdf:RDF>
  </metadata>
  <g
     inkscape:label="pin"
     inkscape:groupmode="layer"
     id="layer1"
     transform="translate(-223.41367,-61.351686)">
    <flowRoot
       xml:space="preserve"
       id="flowRoot4285"
       style="font-style:normal;font-weight:normal;font-size:40px;line-height:125%;font-family:sans-serif;letter-spacing:0px;word-spacing:0px;fill:#000000;fill-opacity:1;stroke:none;stroke-width:1px;stroke-linecap:butt;stroke-linejoin:miter;stroke-opacity:1"><flowRegion
         id="flowRegion4287"><rect
           id="rect4289"
           width="196.66518"
           height="60.972179"
           x="99.229233"
           y="315.31613" /></flowRegion><flowPara
         id="flowPara4291" /></flowRoot>    <flowRoot
       xml:space="preserve"
       id="flowRoot4293"
       style="font-style:normal;font-weight:normal;font-size:40px;line-height:125%;font-family:sans-serif;letter-spacing:0px;word-spacing:0px;fill:#000000;fill-opacity:1;stroke:none;stroke-width:1px;stroke-linecap:butt;stroke-linejoin:miter;stroke-opacity:1"><flowRegion
         id="flowRegion4295"><rect
           id="rect4297"
           width="60.972179"
           height="116.56446"
           x="56.190048"
           y="110.28224" /></flowRegion><flowPara
         id="flowPara4299" /></flowRoot>    <flowRoot
       xml:space="preserve"
       id="flowRoot3373"
       style="font-style:normal;font-weight:normal;font-size:40px;line-height:125%;font-family:sans-serif;letter-spacing:0px;word-spacing:0px;fill:#000000;fill-opacity:1;stroke:none;stroke-width:1px;stroke-linecap:butt;stroke-linejoin:miter;stroke-opacity:1"><flowRegion
         id="flowRegion3375"><rect
           id="rect3377"
           width="101.02253"
           height="124.93319"
           x="37.06152"
           y="143.75717" /></flowRegion><flowPara
         id="flowPara3379">Park4liepark</flowPara></flowRoot>    <path
       inkscape:connector-curvature="0"
       id="path4254"
       d="m 300.11966,333.39953 c -1.67527,-0.80388 -2.46829,-1.82667 -3.2174,-4.14966 -0.50351,-1.56137 -1.04685,-3.63252 -1.82678,-6.96343 -4.67457,-19.96404 -10.37889,-38.78649 -17.22712,-56.84398 -3.63425,-9.58283 -10.18333,-25.31745 -11.98317,-28.79037 -3.37045,-6.50356 -9.22066,-16.95455 -15.13265,-27.03348 -1.4627,-2.49365 -4.03602,-6.88022 -5.71849,-9.74792 -5.05385,-8.6141 -7.8782,-13.69711 -10.26649,-18.4767 -6.40481,-12.81765 -9.49838,-23.63836 -10.51527,-36.78042 -0.35931,-4.64362 -0.40454,-9.66907 -0.11017,-12.24157 0.0606,-0.5299 0.18923,-1.67755 0.28577,-2.55033 1.24796,-11.28272 5.65706,-23.21753 12.20636,-33.040925 4.28153,-6.42193 9.43326,-11.98445 15.89368,-17.16103 10.44109,-8.36619 22.72836,-14.120188 35.08679,-16.430756 7.03672,-1.315605 13.10179,-1.598296 19.83589,-0.924544 18.43222,1.844159 36.10823,10.22776 49.98241,23.70631 7.97374,7.74637 14.11918,17.393395 18.07564,28.374885 3.15659,8.76141 4.65403,18.14163 4.27567,26.78368 -0.76843,17.55178 -4.42171,29.85561 -14.12655,47.57663 -1.87469,3.42317 -3.70407,6.6176 -7.23767,12.63829 -8.62045,14.68782 -10.24927,17.49725 -13.30741,22.95296 -5.99605,10.69689 -7.62776,13.87917 -10.16303,19.82058 -8.42298,19.73927 -13.62793,33.84194 -18.64267,50.51181 -2.76691,9.19769 -4.44743,15.51545 -7.98991,30.0372 -1.1879,4.86962 -1.77896,6.46277 -2.82045,7.60232 -0.93705,1.02529 -1.85775,1.43045 -3.54341,1.5593 -0.75931,0.058 -0.8373,0.0396 -1.81357,-0.42885 z"
       style="fill:#000000;stroke:none;stroke-width:1;stroke-miterlimit:4;stroke-dasharray:none;stroke-opacity:1"
       inkscape:export-xdpi="90"
       inkscape:export-ydpi="90" />
    <path
       style="color:#000000;font-style:normal;font-variant:normal;font-weight:normal;font-stretch:normal;font-size:medium;line-height:normal;font-family:sans-serif;text-indent:0;text-align:start;text-decoration:none;text-decoration-line:none;text-decoration-style:solid;text-decoration-color:#000000;letter-spacing:normal;word-spacing:normal;text-transform:none;direction:ltr;block-progression:tb;writing-mode:lr-tb;baseline-shift:baseline;text-anchor:start;white-space:normal;clip-rule:nonzero;display:inline;overflow:visible;visibility:visible;opacity:1;isolation:auto;mix-blend-mode:normal;color-interpolation:sRGB;color-interpolation-filters:linearRGB;solid-color:#000000;solid-opacity:1;fill:#008000;fill-opacity:1;fill-rule:nonzero;stroke:#000000;stroke-width:1;stroke-linecap:butt;stroke-linejoin:miter;stroke-miterlimit:4;stroke-dasharray:none;stroke-dashoffset:0;stroke-opacity:1;color-rendering:auto;image-rendering:auto;shape-rendering:auto;text-rendering:auto;enable-background:accumulate"
       d="m 301.12305,69.212891 c -2.25176,-0.02083 -4.49007,0.07839 -6.70313,0.302734 -10.5208,1.066537 -21.04197,4.841685 -30.6582,10.960937 -2.99931,1.908595 -6.18632,4.286658 -9.09375,6.783204 -1.80497,1.549897 -5.83868,5.576642 -7.31836,7.318359 -7.84067,9.229185 -13.29271,20.963285 -15.27539,32.874995 -0.71563,4.29943 -0.95286,8.25982 -0.77149,12.82032 0.36948,9.29008 1.60925,16.43793 4.23243,24.29883 1.56009,4.67515 3.07258,8.24166 5.79882,13.69335 2.6845,5.36823 4.84756,9.24907 10.70313,19.2168 8.30451,14.13651 10.69472,18.27836 14.33984,24.83985 2.0389,3.67017 5.87735,10.79461 6.59375,12.22265 0.3313,0.66039 2.04205,4.60591 3.88086,8.98828 1.83881,4.38238 3.8976,9.37929 5.22656,12.72852 6.96977,17.56502 12.85934,35.6887 17.41016,53.56836 0.13794,0.54194 0.27098,1.03233 0.38281,1.41211 0.0559,0.18989 0.10458,0.3481 0.15821,0.50195 0.0268,0.0769 0.0493,0.14416 0.10547,0.26953 0.0281,0.0627 0.056,0.13343 0.16015,0.29492 0.0521,0.0808 0.11432,0.18703 0.29688,0.36329 0.0913,0.0881 0.42698,0.31403 0.42773,0.31445 7.5e-4,4.1e-4 0.96615,0.24805 0.9668,0.24805 6.5e-4,0 0.79615,-0.16375 0.79687,-0.16407 7.3e-4,-3.1e-4 0.33454,-0.18131 0.4375,-0.26172 0.20593,-0.1608 0.29374,-0.27516 0.36133,-0.36328 0.13518,-0.17624 0.17292,-0.2612 0.20899,-0.33203 0.0721,-0.14165 0.0953,-0.21179 0.12304,-0.28516 0.0555,-0.14672 0.0972,-0.27748 0.14453,-0.43164 0.0946,-0.3083 0.20083,-0.68979 0.3086,-1.11328 4.42493,-17.38892 10.32279,-35.50913 17.21679,-52.88867 4.25426,-10.72486 8.55867,-20.73309 10.25,-23.94922 4.62892,-8.80206 9.84525,-18.02684 18.41016,-32.55859 2.69605,-4.57428 5.63533,-9.61868 6.81836,-11.70313 10.88131,-19.17242 14.71708,-31.10392 15.38672,-48.04101 0.2972,-7.51713 -0.63018,-14.38875 -2.93555,-21.77735 -2.37884,-7.62406 -6.42821,-15.40311 -11.23828,-21.58007 -3.05694,-3.925652 -7.37867,-8.249618 -11.67773,-11.703129 -13.27571,-10.66462 -29.71229,-16.723353 -45.47461,-16.86914 z"
       id="path3450"
       inkscape:connector-curvature="0"
       inkscape:export-xdpi="90"
       inkscape:export-ydpi="90" />
    <path
       style="color:#000000;font-style:normal;font-variant:normal;font-weight:normal;font-stretch:normal;font-size:medium;line-height:normal;font-family:sans-serif;text-indent:0;text-align:start;text-decoration:none;text-decoration-line:none;text-decoration-style:solid;text-decoration-color:#000000;letter-spacing:normal;word-spacing:normal;text-transform:none;direction:ltr;block-progression:tb;writing-mode:lr-tb;baseline-shift:baseline;text-anchor:start;white-space:normal;clip-rule:nonzero;display:inline;overflow:visible;visibility:visible;opacity:1;isolation:auto;mix-blend-mode:normal;color-interpolation:sRGB;color-interpolation-filters:linearRGB;solid-color:#000000;solid-opacity:1;fill:#ffffff;fill-opacity:1;fill-rule:nonzero;stroke:none;stroke-width:1;stroke-linecap:butt;stroke-linejoin:miter;stroke-miterlimit:4;stroke-dasharray:none;stroke-dashoffset:0;stroke-opacity:1;color-rendering:auto;image-rendering:auto;shape-rendering:auto;text-rendering:auto;enable-background:accumulate"
       d="m 298.01173,109.52148 c -6.26955,0.93116 -11.5632,3.34309 -16.20899,7.40235 -4.34616,3.79744 -7.70921,9.24792 -9.18554,14.875 -0.74002,2.82065 -0.90633,4.25042 -0.9043,7.77148 0.002,2.82237 0.0509,3.62895 0.29297,4.98047 1.12794,6.29672 3.94007,11.77035 8.35937,16.2461 5.06598,5.13067 11.69289,8.2499 18.94532,8.92968 1.64486,0.15419 4.53809,0.0908 6.21679,-0.12109 9.94064,-1.25509 18.63313,-7.30486 23.23047,-16.17383 1.43029,-2.75924 2.42091,-5.70307 2.97461,-8.82422 0.42376,-2.38864 0.50521,-6.32768 0.1875,-8.7539 -0.59831,-4.56898 -1.8275,-9.26596 -4.68359,-12.79883 -5.32316,-6.58454 -12.42723,-12.18629 -21.4961,-13.53321 -1.9811,-0.29423 -5.74741,-0.29423 -7.72851,0 z"
       id="path4252"
       inkscape:connector-curvature="0"
       inkscape:export-xdpi="90"
       inkscape:export-ydpi="90" />
  </g>
  <g
     inkscape:groupmode="layer"
     id="layer2"
     inkscape:label="p"
     transform="translate(-223.41367,-61.351686)">
    <flowRoot
       xml:space="preserve"
       id="flowRoot3425"
       style="font-style:normal;font-variant:normal;font-weight:normal;font-stretch:normal;font-size:12.5px;line-height:125%;font-family:REZ;-inkscape-font-specification:'REZ, Normal';text-align:start;letter-spacing:0px;word-spacing:0px;writing-mode:lr-tb;text-anchor:start;fill:#0051ff;fill-opacity:1;stroke:#000000;stroke-width:0.32521933;stroke-linecap:butt;stroke-linejoin:miter;stroke-miterlimit:4;stroke-dasharray:none;stroke-opacity:1"
       transform="matrix(27.673633,0,0,27.673633,-6065.3991,-11938.757)"
       inkscape:export-xdpi="90"
       inkscape:export-ydpi="90"><flowRegion
         id="flowRegion3427"><rect
           id="rect3429"
           width="170.79111"
           height="114.27934"
           x="231.07033"
           y="429.47699"
           style="font-style:normal;font-variant:normal;font-weight:normal;font-stretch:normal;font-size:12.5px;line-height:125%;font-family:REZ;-inkscape-font-specification:'REZ, Normal';text-align:start;writing-mode:lr-tb;text-anchor:start;fill:#0051ff;fill-opacity:1;stroke:#000000;stroke-width:0.32521933;stroke-miterlimit:4;stroke-dasharray:none;stroke-opacity:1;" /></flowRegion><flowPara
         id="flowPara3431">P</flowPara></flowRoot>  </g>
  <g
     inkscape:groupmode="layer"
     id="layer3"
     inkscape:label="name"
     transform="translate(-223.41367,-61.351686)"
     style="display:inline">
    <flowRoot
       xml:space="preserve"
       id="flowRoot3381"
       style="font-style:normal;font-variant:normal;font-weight:normal;font-stretch:normal;font-size:12.17513275px;line-height:125%;font-family:REZ;-inkscape-font-specification:'REZ, Normal';text-align:start;letter-spacing:0px;word-spacing:0px;writing-mode:lr-tb;text-anchor:start;fill:#000000;fill-opacity:1;stroke:none;stroke-width:0;stroke-linecap:butt;stroke-linejoin:miter;stroke-miterlimit:4;stroke-dasharray:none;stroke-opacity:1"
       transform="matrix(15.383016,0,0,15.383016,73.70458,-35.60121)"
       inkscape:export-xdpi="90"
       inkscape:export-ydpi="90"><flowRegion
         id="flowRegion3383"><rect
           id="rect3385"
           width="294.69888"
           height="44.234718"
           x="28.095024"
           y="11.053015"
           style="font-style:normal;font-variant:normal;font-weight:normal;font-stretch:normal;font-size:12.17513275px;line-height:125%;font-family:REZ;-inkscape-font-specification:'REZ, Normal';text-align:start;writing-mode:lr-tb;text-anchor:start;stroke:none;stroke-width:0;stroke-miterlimit:4;stroke-dasharray:none;stroke-opacity:1" /></flowRegion><flowPara
         id="flowPara3397">PARK</flowPara></flowRoot>    <flowRoot
       xml:space="preserve"
       id="flowRoot3389"
       style="font-style:normal;font-variant:normal;font-weight:bold;font-stretch:normal;font-size:45px;line-height:125%;font-family:'Courier New';-inkscape-font-specification:'Courier New, Bold';text-align:start;letter-spacing:0px;word-spacing:0px;writing-mode:lr-tb;text-anchor:start;fill:#000000;fill-opacity:1;stroke:none;stroke-width:1px;stroke-linecap:butt;stroke-linejoin:miter;stroke-opacity:1"
       transform="matrix(4.169986,0,0,4.169986,728.73498,-167.90069)"
       inkscape:export-xdpi="90"
       inkscape:export-ydpi="90"><flowRegion
         id="flowRegion3391"><rect
           id="rect3393"
           width="191.28528"
           height="141.07289"
           x="23.312893"
           y="75.611794"
           style="font-style:normal;font-variant:normal;font-weight:bold;font-stretch:normal;font-size:45px;line-height:125%;font-family:'Courier New';-inkscape-font-specification:'Courier New, Bold';text-align:start;writing-mode:lr-tb;text-anchor:start" /></flowRegion><flowPara
         id="flowPara3395">4</flowPara></flowRoot>    <flowRoot
       xml:space="preserve"
       id="flowRoot3381-5"
       style="font-style:normal;font-variant:normal;font-weight:normal;font-stretch:normal;font-size:45px;line-height:125%;font-family:REZ;-inkscape-font-specification:'REZ, Normal';text-align:start;letter-spacing:0px;word-spacing:0px;writing-mode:lr-tb;text-anchor:start;fill:#000000;fill-opacity:1;stroke:none;stroke-width:1px;stroke-linecap:butt;stroke-linejoin:miter;stroke-opacity:1"
       transform="matrix(4.0588252,0,0,4.0588252,940.60998,202.65582)"
       inkscape:export-xdpi="90"
       inkscape:export-ydpi="90"><flowRegion
         id="flowRegion3383-5"><rect
           id="rect3385-2"
           width="1089.2242"
           height="163.49409"
           x="-0.047509681"
           y="-16.056858"
           style="font-style:normal;font-variant:normal;font-weight:normal;font-stretch:normal;font-size:45px;line-height:125%;font-family:REZ;-inkscape-font-specification:'REZ, Normal';text-align:start;writing-mode:lr-tb;text-anchor:start" /></flowRegion><flowPara
         id="flowPara3423">life</flowPara></flowRoot>  </g>
</svg>
